PathFileType	4	(X/Y/Z)	32_1_53_p1_0-233_filt_butterworth.trc
DataRate	CameraRate	NumFrames	NumMarkers	Units	OrigDataRate	OrigDataStartFrame	OrigNumFrames
60.0	60.0	5	27	m	60.0	58	233
Frame#	Time	RHip			RKnee			RAnkle			RBigToe			RSmallToe			RHeel			LHip			LKnee			LAnkle			LBigToe			LSmallToe			LHeel			Neck			Head			Nose			RShoulder			RElbow			RWrist			RThumb			RIndex			RPinky			LShoulder			LElbow			LWrist			LThumb			LIndex			LPinky			
		X1	Y1	Z1	X2	Y2	Z2	X3	Y3	Z3	X4	Y4	Z4	X5	Y5	Z5	X6	Y6	Z6	X7	Y7	Z7	X8	Y8	Z8	X9	Y9	Z9	X10	Y10	Z10	X11	Y11	Z11	X12	Y12	Z12	X13	Y13	Z13	X14	Y14	Z14	X15	Y15	Z15	X16	Y16	Z16	X17	Y17	Z17	X18	Y18	Z18	X19	Y19	Z19	X20	Y20	Z20	X21	Y21	Z21	X22	Y22	Z22	X23	Y23	Z23	X24	Y24	Z24	X25	Y25	Z25	X26	Y26	Z26	X27	Y27	Z27	
58	0.9666666666666668	0.34803733650852586	0.4956511563109585	1.070140063167304	0.34484466193798785	0.5222123488398903	1.5261649413107399	0.3490261869326945	0.574847281875266	1.9468873475283581	0.3156814872597289	0.3274907131416481	1.9162176928653178	0.38242412372528517	0.33143154620349813	1.9081590214428796	0.3196194566456165	0.6412567952056266	2.0118927306249765	0.15593826165359484	0.4744452105739538	1.0768533023256244	0.14541660136858156	0.5342466209842334	1.5112139863101217	0.1374904108394521	0.537653019968697	1.951425750964345	0.15534361329497415	0.2984059216177561	1.8926099756967456	0.11019309140173081	0.3375987972209871	1.9141066283567674	0.148907116505429	0.5645535691930509	1.9884141909866548	0.2363651222615581	0.4721760439284375	0.5288896603452727	0.236992880884957	0.4321221042800714	0.30080826448739334	0.225545039279629	0.3648118273331597	0.41207497716939406	0.381222519144824	0.47234457377056566	0.6113698496768625	0.43145265474192795	0.519695343887173	0.8876934573060095	0.4457620881603037	0.3950039159807207	1.1046931040107895	0.4076107864854275	0.4036665493531598	1.2544168786606629	0.4410656737386721	0.37016290691781895	1.2504412446717907	0.4519338852846932	0.42508600567638144	1.2666062162071978	0.07590413124705396	0.4735103728989225	0.6263853306549343	0.05215159016758061	0.44097510877701246	0.8716562958349606	0.04275339850349498	0.36733257063386526	1.1043679025889346	0.06800024613335685	0.2997751939086989	1.186759667120941	0.03689322610615734	0.30530148211306507	1.1979860194978074	0.019922060551489502	0.3365995637424754	1.2051714295970306
59	0.9833333333333332	0.34806062202299964	0.4959474001412384	1.071749596990549	0.3451382132565305	0.522955493643398	1.5261309659283697	0.3480528038700179	0.5714865514512492	1.9448213419488054	0.3154284794635032	0.3275125921968299	1.9162574578998135	0.38260354925543355	0.33243317910229286	1.9088500344729429	0.3195752677541073	0.641124924064916	2.0118405088496574	0.1544787045377143	0.47695156410363493	1.078566405714837	0.14578259177579123	0.5346264795593678	1.5111587531050652	0.137503836374437	0.5375224278427984	1.9513977407518273	0.1572100430254555	0.2976214384249283	1.8918597895149187	0.11024415161754719	0.3375091536507738	1.9140235684132492	0.14903246429452113	0.5640014427775776	1.9893378461525364	0.23754194400907971	0.46898329084779694	0.5274671036503668	0.23697117208750113	0.43195549291033775	0.3015681705992026	0.2255699392749667	0.36482253751748095	0.4121073438672801	0.38128153133930187	0.472562298659029	0.610965843555363	0.43032985326561535	0.5166872468266934	0.8884283535757377	0.4432808891071659	0.39791411195105814	1.1088395950623549	0.4063287395565138	0.4020694601462178	1.2545573638243854	0.43773603377015324	0.3742153930638659	1.2523674605294552	0.4486227575750293	0.4286976528488071	1.268377201028676	0.07593471201362273	0.4735009231572643	0.626386890710552	0.05370579664938143	0.4378312817031592	0.871554120892122	0.04330515124385686	0.37014199021285593	1.1046925997103507	0.07413221742655504	0.2959131338333179	1.1840664401172778	0.03827945423527763	0.30461410626176666	1.1971503681752294	0.0225195267464288	0.3334811266889783	1.2062862271600776
60	1.0	0.3480983216936754	0.49628010438852177	1.074486758982463	0.34544597732976606	0.5233744532940854	1.528004853790437	0.3466464112867158	0.5672153349149882	1.9424875817902043	0.3153433167324507	0.32751711476557344	1.9161947058908937	0.3831362517072374	0.33441796899020165	1.910285323727729	0.31950836739016514	0.6409907613990318	2.011815745410418	0.1532895809140249	0.47582880270643	1.0791074422971851	0.1461564532421032	0.5352558938054768	1.5125855319055543	0.1375096253048398	0.5374067388036831	1.9513762175089346	0.15861066820083652	0.297400207667347	1.8915280629757367	0.1103371140717622	0.3373018842211974	1.9138752643828154	0.14917829981194156	0.5633054578967756	1.9905227779163828	0.23799596956621663	0.46769465336877475	0.5271664479570548	0.2366602442941229	0.43076019924707576	0.30261345169744214	0.2255712381315183	0.36483641443883436	0.41213743920744805	0.38131820694819163	0.4725940104865433	0.6106920123144581	0.42900091377588245	0.5130090711110764	0.8889914883360075	0.4408206023460214	0.40361522212883877	1.1139981966018098	0.40404506150814135	0.3985104176457477	1.255200939740288	0.43339898984530906	0.37619645672148055	1.25374563244469	0.44428070147658927	0.4278492561660954	1.2684567444728876	0.07595386321699035	0.47345130919943346	0.626375425228447	0.05408790391677536	0.4363535816444664	0.8714775735502307	0.04346947295985338	0.371684693526098	1.1048003915637277	0.08036888788845778	0.29566654501826906	1.1827109733390322	0.04042932757248189	0.3029803959738505	1.1967586520235391	0.024591211019077516	0.3315531838687398	1.2071411183891463
61	1.0166666666666666	0.3481294355352487	0.49650703749223074	1.0776881093352702	0.3455932174481547	0.523484798760931	1.5305712059073429	0.34558944932769275	0.5639876689361987	1.9407363881805129	0.3154308645197931	0.32751249966718793	1.9165770399806865	0.38414330577132727	0.3377484041176839	1.9125286254197695	0.3194565980743549	0.6409000567976821	2.011864257007235	0.15324794590968266	0.4739891382670071	1.0799400479817223	0.14636605143625508	0.5358384898940478	1.5155307775778057	0.13751167055970975	0.5373599443164487	1.9513763361712628	0.15890186810761658	0.2987111082157102	1.8924347919793958	0.11045521387627914	0.3370227672638275	1.9136942520911155	0.14928645061514265	0.5628186445244356	1.9914310983581782	0.23798447040141396	0.4675574232705743	0.5279695396352402	0.2359536668419201	0.42811304969199104	0.3035878824110487	0.22554963192623884	0.3648490605191781	0.41213588025215714	0.3813415029271319	0.4725508807846166	0.6106611728777518	0.42801957372697413	0.5105710657985607	0.8893877482132743	0.4386087410871445	0.4107589110480952	1.118866363683961	0.4009434658798426	0.3936935010081706	1.2559303462770404	0.42859772787880834	0.37631461189797727	1.254849937197486	0.43974361994602695	0.4236665213778903	1.2670979925036	0.07594783839973841	0.47330673554459823	0.6263443432935506	0.05461117022895184	0.43642702614865003	0.8715699804943086	0.044291499507028285	0.3732754918284475	1.1052075332383262	0.08656623865606443	0.29729488659099657	1.1826088342905656	0.04291811111047379	0.3005919682335441	1.1972351772301453	0.026445859145519744	0.33148372508382545	1.2058709803499685
62	1.0333333333333334	0.34812146897612506	0.4966028717098035	1.0803613716605738	0.345541857819104	0.523872653190842	1.5321293648865646	0.3451783416778908	0.5627220820352407	1.9400564631272434	0.3155927676595425	0.3275028696394583	1.91706006264913	0.3853758681641817	0.3417068942933735	1.9150910593565675	0.31944489079591526	0.6408585332953953	2.0119604431073936	0.1543129490777682	0.4733850784040808	1.082161139643198	0.1463986971026861	0.5362346691993175	1.519007899804261	0.13751331661414276	0.5373724324228003	1.9514537402624141	0.15793699392445026	0.30218065867156396	1.895267691155436	0.11042283901477784	0.33713193145252746	1.913794496334125	0.14933187306161733	0.5627019114761692	1.9918295658401242	0.2379099787917952	0.46752110619129117	0.5294699760271535	0.2350681648023511	0.4247867681166418	0.30444371742643295	0.22551802395892265	0.36485014652045666	0.41209763518349546	0.38134615852492015	0.4725194483429274	0.6106957534670512	0.42730009973109084	0.5097376580582027	0.8892835152993075	0.4369465808597881	0.4157343880427986	1.1217455408142238	0.3969028894583389	0.3883746235802033	1.255515953908475	0.4235549709279996	0.3753414161335609	1.2558112116359963	0.436630840091873	0.4169157770362676	1.2640114114093115	0.07592327567669789	0.4731298774734547	0.626314594848318	0.05691797858723416	0.43761309920949043	0.8719081164190642	0.04663512909663472	0.3754624328703938	1.1059236137404764	0.09209206219196335	0.29863789167647764	1.182828705566596	0.04572691003292581	0.29861888025585	1.1978417178087808	0.028639118149304706	0.3328840925289163	1.2030322480076479
